:FULLY-SPECIFIED
:FORCE-ALL-JOINTS-BE-3DOF
:DEGREES
815
root 1.96192 16.713 22.541 5.00468 1.83111 -6.482
lfemur -39.698 0.559225 -0.281321
ltibia 21.8073 0 0
lfoot -9.19832 6.66918 0
ltoes 14.4502 0 0
rfemur 0.5095 4.78051 21.9255
rtibia 22.8266 0 0
rfoot -22.2666 -10.1812 0
rtoes -21.9747 0 0
lowerback 0.914862 5.90682 5.67842
upperback -0.0805568 7.93448 -0.323897
thorax 0.21885 3.97185 -3.47822
lowerneck -5.96449 -1.68415 2.87207
upperneck -0.924203 -2.43981 1.36072
head 0.681354 -1.20397 -0.11296
lclavicle 8.26944e-14 1.07344e-14 0
lhumerus -53.0701 -7.31291 91.7935
lradius 53.9866 0 0
lwrist 19.7939 0 0
lhand -11.2722 5.17551 0
lfingers 7.12502 0 0
lthumb 14.7583 34.6301 0
rclavicle 8.26944e-14 1.07344e-14 0
rhumerus -30.9049 45.5457 -111.566
rradius 67.6532 0 0
rwrist -0.988598 0 0
rhand -11.2537 -25.3793 0
rfingers 7.12502 0 0
rthumb 14.7761 -54.833 0
816
root 1.99793 16.6939 22.7034 4.90098 1.16476 -6.58851
lfemur -39.3142 0.662117 -0.129474
ltibia 21.7889 -0 0
lfoot -8.96558 7.2484 0.0181976
ltoes 14.8649 -0 0
rfemur 1.12628 4.72703 21.8249
rtibia 22.5784 -0 0
rfoot -22.141 -10.3655 -0.00311764
rtoes -22.8067 0 0
lowerback 0.782018 6.00308 5.69542
upperback -0.125199 8.05521 -0.280596
thorax 0.253762 4.03236 -3.42497
lowerneck -5.91861 -1.65085 2.94246
upperneck -0.724289 -2.4035 1.33821
head 0.736474 -1.18267 -0.131745
lclavicle 0 0 0
lhumerus -53.1907 -7.10853 91.598
lradius 53.8279 -0 0
lwrist 19.5679 0 0
lhand -10.7832 5.20992 0.00226925
lfingers 0 0 0
lthumb 15.2286 34.6193 -0.000684622
rclavicle 0 0 0
rhumerus -30.7489 45.4024 -111.014
rradius 67.5612 -0 0
rwrist -1.09531 0 0
rhand -10.8833 -24.9962 0.0191417
rfingers 0 0 0
rthumb 15.1324 -54.4176 0.0199714
817
root 2.03318 16.6689 22.8672 4.75464 0.210152 -6.73891
lfemur -38.7642 0.807691 0.0891851
ltibia 21.7625 -0 0
lfoot -8.63198 8.07802 0.0401586
ltoes 15.4589 -0 0
rfemur 2.00964 4.65233 21.6799
rtibia 22.2229 -0 0
rfoot -21.9612 -10.6295 -0.00687893
rtoes -23.9983 0 0
lowerback 0.591781 6.14099 5.71939
upperback -0.188995 8.22817 -0.218727
thorax 0.303862 4.11895 -3.34864
lowerneck -5.85284 -1.60325 3.04331
upperneck -0.438028 -2.35137 1.30618
head 0.815399 -1.15213 -0.158611
lclavicle 0 0 0
lhumerus -53.3646 -6.81655 91.3174
lradius 53.6007 -0 0
lwrist 19.2442 0 0
lhand -10.0829 5.25923 0.00500745
lfingers 0 0 0
lthumb 15.9022 34.6038 -0.00151071
rclavicle 0 0 0
rhumerus -30.5296 45.1955 -110.228
rradius 67.4294 -0 0
rwrist -1.24813 0 0
rhand -10.3527 -24.4474 0.04224
rfingers 0 0 0
rthumb 15.643 -53.8225 0.0440711
818
root 2.06712 16.6398 23.029 4.5789 -0.958933 -6.91973
lfemur -38.09 0.983024 0.358753
ltibia 21.7301 -0 0
lfoot -8.22322 9.09374 0.0604623
ltoes 16.186 -0 0
rfemur 3.09113 4.56394 21.5008
rtibia 21.7877 -0 0
rfoot -21.741 -10.9526 -0.0103553
rtoes -25.4569 0 0
lowerback 0.358915 6.30993 5.7481
upperback -0.26687 8.43998 -0.143219
thorax 0.365356 4.22486 -3.25508
lowerneck -5.77222 -1.54515 3.16683
upperneck -0.0876577 -2.28733 1.26734
head 0.911993 -1.1147 -0.191441
lclavicle 0 0 0
lhumerus -53.5793 -6.46029 90.9729
lradius 53.3226 -0 0
lwrist 18.848 0 0
lhand -9.22565 5.31963 0.00753866
lfingers 0 0 0
lthumb 16.7267 34.5849 -0.00227434
rclavicle 0 0 0
rhumerus -30.2677 44.9393 -109.27
rradius 67.268 -0 0
rwrist -1.43521 0 0
rhand -9.70286 -23.7753 0.063593
rfingers 0 0 0
rthumb 16.2683 -53.0937 0.0663503
819
root 2.09917 16.6081 23.1851 4.38638 -2.26862 -7.11807
lfemur -37.3342 1.17557 0.663035
ltibia 21.6939 -0 0
lfoot -7.76519 10.2312 0.0745931
ltoes 17.0001 -0 0
rfemur 4.30226 4.46898 21.2984
rtibia 21.3004 -0 0
rfoot -21.4945 -11.3145 -0.0127741
rtoes -27.0901 0 0
lowerback 0.0981808 6.49922 5.77945
upperback -0.353786 8.67728 -0.0589673
thorax 0.434427 4.34333 -3.15018
lowerneck -5.6818 -1.48029 3.30523
upperneck 0.304588 -2.21534 1.22432
head 1.02012 -1.07272 -0.228126
lclavicle 0 0 0
lhumerus -53.8221 -6.0629 90.5858
lradius 53.0111 -0 0
lwrist 18.4043 0 0
lhand -8.26577 5.38729 0.00930012
lfingers 0 0 0
lthumb 17.6499 34.5637 -0.00280574
rclavicle 0 0 0
rhumerus -29.983 44.6488 -108.205
rradius 67.0874 -0 0
rwrist -1.64468 0 0
rhand -8.975 -23.0225 0.0784531
rfingers 0 0 0
rthumb 16.9687 -52.2775 0.0818551
820
root 2.12878 16.5755 23.332 4.18882 -3.64491 -7.32189
lfemur -36.5391 1.37345 0.985358
ltibia 21.6559 -0 0
lfoot -7.28391 11.426 0.0796414
ltoes 17.8552 -0 0
rfemur 5.57452 4.37386 21.0837
rtibia 20.7886 -0 0
rfoot -21.2355 -11.6945 -0.0136382
rtoes -28.8056 0 0
lowerback -0.175667 6.69819 5.81145
upperback -0.444753 8.92664 0.0291894
thorax 0.50722 4.46763 -3.03982
lowerneck -5.58666 -1.41241 3.45071
upperneck 0.716491 -2.13942 1.17967
head 1.13366 -1.02856 -0.266571
lclavicle 0 0 0
lhumerus -54.0798 -5.64729 90.1778
lradius 52.684 -0 0
lwrist 17.9383 0 0
lhand -7.25758 5.45839 0.00992937
lfingers 0 0 0
lthumb 18.6195 34.5414 -0.00299557
rclavicle 0 0 0
rhumerus -29.6937 44.3397 -107.095
rradius 66.8976 -0 0
rwrist -1.8647 0 0
rhand -8.21037 -22.2317 0.0837616
rfingers 0 0 0
rthumb 17.7045 -51.4201 0.0873939
821
root 2.15538 16.5434 23.4662 3.99696 -5.01364 -7.52013
lfemur -35.7477 1.5657 1.30847
ltibia 21.6181 -0 0
lfoot -6.80551 12.6136 0.074713
ltoes 18.7052 -0 0
rfemur 6.83936 4.28404 20.8683
rtibia 20.2799 -0 0
rfoot -20.9781 -12.0723 -0.0127947
rtoes -30.5107 0 0
lowerback -0.447877 6.89612 5.84232
upperback -0.534854 9.17466 0.116481
thorax 0.579828 4.59104 -2.92995
lowerneck -5.49192 -1.34517 3.59542
upperneck 1.12585 -2.06364 1.13582
head 1.2465 -0.98458 -0.304699
lclavicle 0 0 0
lhumerus -54.3388 -5.236 89.7706
lradius 52.3588 -0 0
lwrist 17.4751 0 0
lhand -6.25543 5.52905 0.00931506
lfingers 0 0 0
lthumb 19.5834 34.5192 -0.00281024
rclavicle 0 0 0
rhumerus -29.416 44.0286 -105.999
rradius 66.709 -0 0
rwrist -2.08339 0 0
rhand -7.45032 -21.4456 0.0785791
rfingers 0 0 0
rthumb 18.4359 -50.5678 0.0819865
